<?xml version="1.0" encoding="utf-8"?>
<!-- Generator: Adobe Illustrator 26.3.1, SVG Export Plug-In . SVG Version: 6.00 Build 0)  -->
<svg version="1.2" baseProfile="tiny" id="g-Delivery_route_svg-Artboard_1-interactions-img" xmlns="http://www.w3.org/2000/svg" xmlns:xlink="http://www.w3.org/1999/xlink"
	 x="0px" y="0px" viewBox="0 0 1000 600" overflow="visible" xml:space="preserve">
<g>
	<path id="home_00000107586440618527844920000006398201275350522242_" fill="#333333" d="M392.5,331c0,2.485-2.015,4.5-4.5,4.5
		s-4.5-2.015-4.5-4.5s2.015-4.5,4.5-4.5S392.5,328.515,392.5,331z"/>
	<path id="north_00000038387564172572742730000008573733193354664344_" fill="#333333" d="M455.5,154c0,2.485-2.015,4.5-4.5,4.5
		s-4.5-2.015-4.5-4.5s2.015-4.5,4.5-4.5S455.5,151.515,455.5,154z"/>
	<g id="south_00000153666046494991073150000009967194362751241647_">
		<path fill="#333333" d="M493.5,417c0,2.485-2.015,4.5-4.5,4.5s-4.5-2.015-4.5-4.5s2.015-4.5,4.5-4.5S493.5,414.515,493.5,417z"/>
		<path fill="#333333" d="M464.5,378c0,2.485-2.015,4.5-4.5,4.5s-4.5-2.015-4.5-4.5s2.015-4.5,4.5-4.5S464.5,375.515,464.5,378z"/>
		<path fill="#333333" d="M402.5,389c0,2.485-2.015,4.5-4.5,4.5s-4.5-2.015-4.5-4.5s2.015-4.5,4.5-4.5S402.5,386.515,402.5,389z"/>
		<path id="_x3C_Path_x3E__00000053524685459778513810000017609676393037481127_" fill="#333333" d="M405.5,366
			c0,2.485-2.015,4.5-4.5,4.5s-4.5-2.015-4.5-4.5s2.015-4.5,4.5-4.5S405.5,363.515,405.5,366z"/>
	</g>
	<g id="centre_00000008147572539559921400000000717733942628499615_">
		<path fill="#333333" d="M610.5,307c0,2.485-2.015,4.5-4.5,4.5s-4.5-2.015-4.5-4.5s2.015-4.5,4.5-4.5S610.5,304.515,610.5,307z"/>
		<path fill="#333333" d="M576.5,326c0,2.485-2.015,4.5-4.5,4.5s-4.5-2.015-4.5-4.5s2.015-4.5,4.5-4.5S576.5,323.515,576.5,326z"/>
		<path fill="#333333" d="M579.5,345c0,2.485-2.015,4.5-4.5,4.5s-4.5-2.015-4.5-4.5s2.015-4.5,4.5-4.5S579.5,342.515,579.5,345z"/>
	</g>
	<g id="northeast_00000123414391590070103540000000719414082182169495_">
		<path fill="#333333" d="M688.5,209c0,2.485-2.015,4.5-4.5,4.5s-4.5-2.015-4.5-4.5s2.015-4.5,4.5-4.5S688.5,206.515,688.5,209z"/>
		<path fill="#333333" d="M642.5,236c0,2.485-2.015,4.5-4.5,4.5s-4.5-2.015-4.5-4.5s2.015-4.5,4.5-4.5S642.5,233.515,642.5,236z"/>
		<path fill="#333333" d="M646.5,218c0,2.485-2.015,4.5-4.5,4.5s-4.5-2.015-4.5-4.5s2.015-4.5,4.5-4.5S646.5,215.515,646.5,218z"/>
	</g>
	<g id="west_00000059294986104058876850000002034455958739308966_">
		<path fill="#333333" d="M316.5,322c0,2.485-2.015,4.5-4.5,4.5s-4.5-2.015-4.5-4.5s2.015-4.5,4.5-4.5S316.5,319.515,316.5,322z"/>
		<path fill="#333333" d="M326.5,301c0,2.485-2.015,4.5-4.5,4.5s-4.5-2.015-4.5-4.5s2.015-4.5,4.5-4.5S326.5,298.515,326.5,301z"/>
		<path fill="#333333" d="M357.5,252c0,2.485-2.015,4.5-4.5,4.5s-4.5-2.015-4.5-4.5s2.015-4.5,4.5-4.5S357.5,249.515,357.5,252z"/>
	</g>
	<path id="repeat5_00000046341783333723016060000001626228752784084114_" fill="#333333" d="M331.5,346c0,2.485-2.015,4.5-4.5,4.5
		s-4.5-2.015-4.5-4.5s2.015-4.5,4.5-4.5S331.5,343.515,331.5,346z"/>
	<path id="repeat4_00000075144536904387030180000000542287040686781610_" fill="#333333" d="M765.5,295c0,2.485-2.015,4.5-4.5,4.5
		s-4.5-2.015-4.5-4.5s2.015-4.5,4.5-4.5S765.5,292.515,765.5,295z"/>
	<path id="repeat3_00000021799186878546742400000014191345963970801039_" fill="#333333" d="M717.5,362c0,2.485-2.015,4.5-4.5,4.5
		s-4.5-2.015-4.5-4.5s2.015-4.5,4.5-4.5S717.5,359.515,717.5,362z"/>
	<path id="repeat2_00000048500006786269841400000014520097183321560506_" fill="#333333" d="M442.5,447c0,2.485-2.015,4.5-4.5,4.5
		s-4.5-2.015-4.5-4.5s2.015-4.5,4.5-4.5S442.5,444.515,442.5,447z"/>
	<path id="repeat1_00000165935442406449256760000002988350841235692470_" fill="#333333" d="M461.5,385c0,2.485-2.015,4.5-4.5,4.5
		s-4.5-2.015-4.5-4.5s2.015-4.5,4.5-4.5S461.5,382.515,461.5,385z"/>
</g>
<style>
#g-Delivery_route_svg-Artboard_1-interactions-img rect, #g-Delivery_route_svg-Artboard_1-interactions-img circle, #g-Delivery_route_svg-Artboard_1-interactions-img path, #g-Delivery_route_svg-Artboard_1-interactions-img line, #g-Delivery_route_svg-Artboard_1-interactions-img polyline, #g-Delivery_route_svg-Artboard_1-interactions-img polygon { vector-effect: non-scaling-stroke; }
</style>
</svg>

